Format : AVI
Format/Info : Audio Video Interleave
File size : 700 MiB
Duration : 1h 46mn
Overall bit rate : 922 Kbps
Writing application : VirtualDubMod 1.5.4.1 (build 2178/release)
Writing library : VirtualDubMod build 2178/release

Video
ID : 0
Format : MPEG-4 Visual
Format settings, BVOP : Yes
Format settings, QPel : No
Format settings, GMC : No warppoints
Format settings, Matrix : Default (H.263)
Muxing mode : Packed bitstream
Codec ID : DX50
Codec ID/Hint : DivX 5
Duration : 1h 46mn
Bit rate : 787 Kbps
Width : 720 pixels
Height : 304 pixels
Display aspect ratio : 2.35:1
Frame rate : 25.000 fps
Resolution : 24 bits
Colorimetry : 4:2:0
Scan type : Progressive
Bits/(Pixel*Frame) : 0.144
Stream size : 598 MiB (85%)
Writing library : DivX 6.8.4

Audio
ID : 1
Format : MPEG Audio
Format version : Version 1
Format profile : Layer 3
Codec ID : 55
Codec ID/Hint : MP3
Duration : 1h 46mn
Bit rate mode : Constant
Bit rate : 128 Kbps
Channel(s) : 2 channels
Sampling rate : 48.0 KHz
Resolution : 16 bits
Stream size : 97.2 MiB (14%)
Alignment : Aligned on interleaves
Interleave, duration : 80 ms (2.00 video frames)
Interleave, preload duration : 504 ms
Writing library : LAME3.98r
Encoding settings : -m j -V 4 -q 2 -lowpass 17 -b 128
Language : English

Starring
Uma Thurman
Lucy Liu
Vivica A. Fox
Daryl Hannah
David Carradine
Michael Madsen
Julie Dreyfu

Kill Bill is a two-part action thriller film released in 2003 and 2004 by writer-director Quentin Tarantino, and starring Uma Thurman as The Bride. Originally conceived as one film, it was released in two "volumes" (in late 2003 and early 2004) due to its running time of approximately four hours. The film is an epic-length revenge drama, with homages to earlier film genres, such as Hong Kong martial arts films, Japanese Chanbara films, exploitation films and Italian spaghetti westerns; an extensive use of popular music and pop culture references; and aestheticization of violence. Filming took place in California, Texas, Beijing, Hong Kong, Tokyo, and Mexico
 
http://www.imdb.com/title/tt0266697/

screens
 
http://img703.imageshack.us/img703/8725/killbill1divxviceavisna.jpg 
http://img683.imageshack.us/img683/8725/killbill1divxviceavisna.jpg 
http://img23.imageshack.us/img23/8725/killbill1divxviceavisna.jpg 
http://img221.imageshack.us/img221/8725/killbill1divxviceavisna.jpg